<mxfile host="app.diagrams.net" agent="Mozilla/5.0 (X11; Ubuntu; Linux x86_64; rv:126.0) Gecko/20100101 Firefox/126.0" version="24.7.16">
  <diagram name="PÃ¡gina-1" id="2iP7uI-8HYH1rPYJdEYY">
    <mxGraphModel dx="703" dy="2084" grid="1" gridSize="10" guides="1" tooltips="1" connect="1" arrows="1" fold="1" page="1" pageScale="1" pageWidth="827" pageHeight="1169" math="0" shadow="0">
      <root>
        <mxCell id="0" />
        <mxCell id="1" parent="0" />
        <mxCell id="Pvh1fNdoSIO-kAcO-zxy-1" value="Medicamentos" style="rounded=0;whiteSpace=wrap;html=1;" vertex="1" parent="1">
          <mxGeometry x="297" y="-60" width="120" height="60" as="geometry" />
        </mxCell>
        <mxCell id="Pvh1fNdoSIO-kAcO-zxy-9" value="Laboratorio" style="rounded=0;whiteSpace=wrap;html=1;" vertex="1" parent="1">
          <mxGeometry x="480.5" y="310" width="120" height="60" as="geometry" />
        </mxCell>
        <mxCell id="Pvh1fNdoSIO-kAcO-zxy-10" value="Comercio" style="rhombus;whiteSpace=wrap;html=1;" vertex="1" parent="1">
          <mxGeometry x="317" y="300" width="80" height="80" as="geometry" />
        </mxCell>
        <mxCell id="Pvh1fNdoSIO-kAcO-zxy-20" value="Farmacia" style="rounded=0;whiteSpace=wrap;html=1;" vertex="1" parent="1">
          <mxGeometry x="113.5" y="310" width="120" height="60" as="geometry" />
        </mxCell>
        <mxCell id="Pvh1fNdoSIO-kAcO-zxy-22" value="" style="endArrow=none;html=1;rounded=0;exitX=1;exitY=0.5;exitDx=0;exitDy=0;entryX=0;entryY=0.5;entryDx=0;entryDy=0;" edge="1" parent="1" source="Pvh1fNdoSIO-kAcO-zxy-20" target="Pvh1fNdoSIO-kAcO-zxy-10">
          <mxGeometry width="50" height="50" relative="1" as="geometry">
            <mxPoint x="280.5" y="380" as="sourcePoint" />
            <mxPoint x="330.5" y="330" as="targetPoint" />
          </mxGeometry>
        </mxCell>
        <mxCell id="Pvh1fNdoSIO-kAcO-zxy-24" value="" style="endArrow=none;html=1;rounded=0;exitX=1;exitY=0.5;exitDx=0;exitDy=0;entryX=0;entryY=0.5;entryDx=0;entryDy=0;" edge="1" parent="1" source="Pvh1fNdoSIO-kAcO-zxy-10" target="Pvh1fNdoSIO-kAcO-zxy-9">
          <mxGeometry width="50" height="50" relative="1" as="geometry">
            <mxPoint x="230.5" y="350" as="sourcePoint" />
            <mxPoint x="320.5" y="350" as="targetPoint" />
          </mxGeometry>
        </mxCell>
        <mxCell id="Pvh1fNdoSIO-kAcO-zxy-25" value="Compra" style="text;html=1;align=center;verticalAlign=middle;whiteSpace=wrap;rounded=0;" vertex="1" parent="1">
          <mxGeometry x="250" y="320" width="60" height="30" as="geometry" />
        </mxCell>
        <mxCell id="Pvh1fNdoSIO-kAcO-zxy-27" value="Vende" style="text;html=1;align=center;verticalAlign=middle;whiteSpace=wrap;rounded=0;" vertex="1" parent="1">
          <mxGeometry x="400.5" y="320" width="60" height="30" as="geometry" />
        </mxCell>
        <mxCell id="Pvh1fNdoSIO-kAcO-zxy-29" value="Clientes" style="rounded=0;whiteSpace=wrap;html=1;" vertex="1" parent="1">
          <mxGeometry x="113.5" y="570" width="120" height="60" as="geometry" />
        </mxCell>
        <mxCell id="Pvh1fNdoSIO-kAcO-zxy-91" value="" style="group" vertex="1" connectable="0" parent="1">
          <mxGeometry x="50" y="-165" width="597.28" height="65" as="geometry" />
        </mxCell>
        <mxCell id="Pvh1fNdoSIO-kAcO-zxy-5" value="Nombre&lt;span style=&quot;white-space: pre;&quot;&gt;&#x9;&lt;/span&gt;" style="ellipse;whiteSpace=wrap;html=1;" vertex="1" parent="Pvh1fNdoSIO-kAcO-zxy-91">
          <mxGeometry x="96.86567164179105" width="79.25373134328359" height="50" as="geometry" />
        </mxCell>
        <mxCell id="Pvh1fNdoSIO-kAcO-zxy-6" value="UID" style="ellipse;whiteSpace=wrap;html=1;" vertex="1" parent="Pvh1fNdoSIO-kAcO-zxy-91">
          <mxGeometry width="79.25373134328359" height="50" as="geometry" />
        </mxCell>
        <mxCell id="Pvh1fNdoSIO-kAcO-zxy-44" value="Tipo" style="ellipse;whiteSpace=wrap;html=1;" vertex="1" parent="Pvh1fNdoSIO-kAcO-zxy-91">
          <mxGeometry x="202.5373134328358" width="79.25373134328359" height="50" as="geometry" />
        </mxCell>
        <mxCell id="Pvh1fNdoSIO-kAcO-zxy-45" value="Stock" style="ellipse;whiteSpace=wrap;html=1;" vertex="1" parent="Pvh1fNdoSIO-kAcO-zxy-91">
          <mxGeometry x="301.16417910447757" width="79.25373134328359" height="50" as="geometry" />
        </mxCell>
        <mxCell id="Pvh1fNdoSIO-kAcO-zxy-46" value="Vendidas" style="ellipse;whiteSpace=wrap;html=1;" vertex="1" parent="Pvh1fNdoSIO-kAcO-zxy-91">
          <mxGeometry x="398.02985074626866" width="79.25373134328359" height="50" as="geometry" />
        </mxCell>
        <mxCell id="Pvh1fNdoSIO-kAcO-zxy-47" value="Precio" style="ellipse;whiteSpace=wrap;html=1;" vertex="1" parent="Pvh1fNdoSIO-kAcO-zxy-91">
          <mxGeometry x="510.7462686567165" width="79.25373134328359" height="50" as="geometry" />
        </mxCell>
        <mxCell id="Pvh1fNdoSIO-kAcO-zxy-48" value="" style="endArrow=none;html=1;rounded=0;exitX=0.5;exitY=1;exitDx=0;exitDy=0;entryX=0.5;entryY=0;entryDx=0;entryDy=0;" edge="1" parent="Pvh1fNdoSIO-kAcO-zxy-91" source="Pvh1fNdoSIO-kAcO-zxy-6" target="Pvh1fNdoSIO-kAcO-zxy-1">
          <mxGeometry width="50" height="50" relative="1" as="geometry">
            <mxPoint x="114.4776119402985" y="115.625" as="sourcePoint" />
            <mxPoint x="158.50746268656718" y="84.375" as="targetPoint" />
          </mxGeometry>
        </mxCell>
        <mxCell id="Pvh1fNdoSIO-kAcO-zxy-50" value="" style="endArrow=none;html=1;rounded=0;exitX=0.5;exitY=1;exitDx=0;exitDy=0;entryX=0.5;entryY=0;entryDx=0;entryDy=0;" edge="1" parent="Pvh1fNdoSIO-kAcO-zxy-91" source="Pvh1fNdoSIO-kAcO-zxy-44" target="Pvh1fNdoSIO-kAcO-zxy-1">
          <mxGeometry width="50" height="50" relative="1" as="geometry">
            <mxPoint x="48.43283582089553" y="56.25" as="sourcePoint" />
            <mxPoint x="281.79104477611935" y="115.625" as="targetPoint" />
          </mxGeometry>
        </mxCell>
        <mxCell id="Pvh1fNdoSIO-kAcO-zxy-51" value="" style="endArrow=none;html=1;rounded=0;exitX=0.5;exitY=1;exitDx=0;exitDy=0;entryX=0.5;entryY=0;entryDx=0;entryDy=0;" edge="1" parent="Pvh1fNdoSIO-kAcO-zxy-91" source="Pvh1fNdoSIO-kAcO-zxy-45" target="Pvh1fNdoSIO-kAcO-zxy-1">
          <mxGeometry width="50" height="50" relative="1" as="geometry">
            <mxPoint x="57.23880597014925" y="62.5" as="sourcePoint" />
            <mxPoint x="290.5970149253731" y="121.875" as="targetPoint" />
          </mxGeometry>
        </mxCell>
        <mxCell id="Pvh1fNdoSIO-kAcO-zxy-52" value="" style="endArrow=none;html=1;rounded=0;exitX=0.5;exitY=1;exitDx=0;exitDy=0;entryX=0.5;entryY=0;entryDx=0;entryDy=0;" edge="1" parent="Pvh1fNdoSIO-kAcO-zxy-91" source="Pvh1fNdoSIO-kAcO-zxy-46" target="Pvh1fNdoSIO-kAcO-zxy-1">
          <mxGeometry width="50" height="50" relative="1" as="geometry">
            <mxPoint x="66.04477611940297" y="68.75" as="sourcePoint" />
            <mxPoint x="299.4029850746268" y="128.125" as="targetPoint" />
          </mxGeometry>
        </mxCell>
        <mxCell id="Pvh1fNdoSIO-kAcO-zxy-53" value="" style="endArrow=none;html=1;rounded=0;entryX=0.5;entryY=0;entryDx=0;entryDy=0;exitX=0.5;exitY=1;exitDx=0;exitDy=0;" edge="1" parent="Pvh1fNdoSIO-kAcO-zxy-91" source="Pvh1fNdoSIO-kAcO-zxy-47" target="Pvh1fNdoSIO-kAcO-zxy-1">
          <mxGeometry width="50" height="50" relative="1" as="geometry">
            <mxPoint x="519.5522388059702" y="65.625" as="sourcePoint" />
            <mxPoint x="308.2089552238806" y="134.375" as="targetPoint" />
          </mxGeometry>
        </mxCell>
        <mxCell id="Pvh1fNdoSIO-kAcO-zxy-54" value="" style="endArrow=none;html=1;rounded=0;exitX=0.5;exitY=1;exitDx=0;exitDy=0;entryX=0.5;entryY=0;entryDx=0;entryDy=0;" edge="1" parent="Pvh1fNdoSIO-kAcO-zxy-91" source="Pvh1fNdoSIO-kAcO-zxy-5" target="Pvh1fNdoSIO-kAcO-zxy-1">
          <mxGeometry width="50" height="50" relative="1" as="geometry">
            <mxPoint x="83.65671641791046" y="81.25" as="sourcePoint" />
            <mxPoint x="317.01492537313436" y="140.625" as="targetPoint" />
          </mxGeometry>
        </mxCell>
        <mxCell id="Pvh1fNdoSIO-kAcO-zxy-92" value="Pertenece" style="rhombus;whiteSpace=wrap;html=1;" vertex="1" parent="1">
          <mxGeometry x="133.5" y="70" width="80" height="80" as="geometry" />
        </mxCell>
        <mxCell id="Pvh1fNdoSIO-kAcO-zxy-93" value="Fabrica" style="rhombus;whiteSpace=wrap;html=1;" vertex="1" parent="1">
          <mxGeometry x="500.5" y="90" width="80" height="80" as="geometry" />
        </mxCell>
        <mxCell id="Pvh1fNdoSIO-kAcO-zxy-94" value="" style="endArrow=none;html=1;rounded=0;entryX=0;entryY=0.5;entryDx=0;entryDy=0;exitX=0.5;exitY=0;exitDx=0;exitDy=0;" edge="1" parent="1" source="Pvh1fNdoSIO-kAcO-zxy-92" target="Pvh1fNdoSIO-kAcO-zxy-1">
          <mxGeometry width="50" height="50" relative="1" as="geometry">
            <mxPoint x="310" y="230" as="sourcePoint" />
            <mxPoint x="360" y="180" as="targetPoint" />
            <Array as="points">
              <mxPoint x="174" y="-30" />
            </Array>
          </mxGeometry>
        </mxCell>
        <mxCell id="Pvh1fNdoSIO-kAcO-zxy-95" value="" style="endArrow=none;html=1;rounded=0;entryX=0.5;entryY=1;entryDx=0;entryDy=0;exitX=0.5;exitY=0;exitDx=0;exitDy=0;" edge="1" parent="1" source="Pvh1fNdoSIO-kAcO-zxy-20" target="Pvh1fNdoSIO-kAcO-zxy-92">
          <mxGeometry width="50" height="50" relative="1" as="geometry">
            <mxPoint x="310" y="230" as="sourcePoint" />
            <mxPoint x="360" y="180" as="targetPoint" />
          </mxGeometry>
        </mxCell>
        <mxCell id="Pvh1fNdoSIO-kAcO-zxy-96" value="" style="endArrow=none;html=1;rounded=0;entryX=0.5;entryY=1;entryDx=0;entryDy=0;exitX=0.5;exitY=0;exitDx=0;exitDy=0;" edge="1" parent="1" source="Pvh1fNdoSIO-kAcO-zxy-9" target="Pvh1fNdoSIO-kAcO-zxy-93">
          <mxGeometry width="50" height="50" relative="1" as="geometry">
            <mxPoint x="310" y="230" as="sourcePoint" />
            <mxPoint x="360" y="180" as="targetPoint" />
          </mxGeometry>
        </mxCell>
        <mxCell id="Pvh1fNdoSIO-kAcO-zxy-97" value="" style="endArrow=none;html=1;rounded=0;entryX=1;entryY=0.5;entryDx=0;entryDy=0;exitX=0.5;exitY=0;exitDx=0;exitDy=0;" edge="1" parent="1" source="Pvh1fNdoSIO-kAcO-zxy-93" target="Pvh1fNdoSIO-kAcO-zxy-1">
          <mxGeometry width="50" height="50" relative="1" as="geometry">
            <mxPoint x="551" y="150" as="sourcePoint" />
            <mxPoint x="550" y="90" as="targetPoint" />
            <Array as="points">
              <mxPoint x="540" y="-30" />
            </Array>
          </mxGeometry>
        </mxCell>
        <mxCell id="Pvh1fNdoSIO-kAcO-zxy-98" value="(Duda)" style="text;html=1;align=center;verticalAlign=middle;whiteSpace=wrap;rounded=0;" vertex="1" parent="1">
          <mxGeometry x="143.5" y="80" width="60" height="30" as="geometry" />
        </mxCell>
        <mxCell id="Pvh1fNdoSIO-kAcO-zxy-105" value="" style="group" vertex="1" connectable="0" parent="1">
          <mxGeometry x="690" y="250" width="100" height="180" as="geometry" />
        </mxCell>
        <mxCell id="Pvh1fNdoSIO-kAcO-zxy-14" value="CL" style="ellipse;whiteSpace=wrap;html=1;" vertex="1" parent="Pvh1fNdoSIO-kAcO-zxy-105">
          <mxGeometry width="100" height="30" as="geometry" />
        </mxCell>
        <mxCell id="Pvh1fNdoSIO-kAcO-zxy-15" value="Nombre" style="ellipse;whiteSpace=wrap;html=1;" vertex="1" parent="Pvh1fNdoSIO-kAcO-zxy-105">
          <mxGeometry y="37.5" width="100" height="30" as="geometry" />
        </mxCell>
        <mxCell id="Pvh1fNdoSIO-kAcO-zxy-16" value="Telefono" style="ellipse;whiteSpace=wrap;html=1;" vertex="1" parent="Pvh1fNdoSIO-kAcO-zxy-105">
          <mxGeometry y="78.75" width="100" height="30" as="geometry" />
        </mxCell>
        <mxCell id="Pvh1fNdoSIO-kAcO-zxy-17" value="DirecciÃ³n Postal" style="ellipse;whiteSpace=wrap;html=1;" vertex="1" parent="Pvh1fNdoSIO-kAcO-zxy-105">
          <mxGeometry y="116.25000000000001" width="100" height="30" as="geometry" />
        </mxCell>
        <mxCell id="Pvh1fNdoSIO-kAcO-zxy-19" value="Fax" style="ellipse;whiteSpace=wrap;html=1;" vertex="1" parent="Pvh1fNdoSIO-kAcO-zxy-105">
          <mxGeometry y="150" width="100" height="30" as="geometry" />
        </mxCell>
        <mxCell id="Pvh1fNdoSIO-kAcO-zxy-106" value="" style="endArrow=none;html=1;rounded=0;entryX=0;entryY=0.5;entryDx=0;entryDy=0;exitX=1;exitY=0.5;exitDx=0;exitDy=0;" edge="1" parent="1" source="Pvh1fNdoSIO-kAcO-zxy-9" target="Pvh1fNdoSIO-kAcO-zxy-14">
          <mxGeometry width="50" height="50" relative="1" as="geometry">
            <mxPoint x="600" y="320" as="sourcePoint" />
            <mxPoint x="650" y="270" as="targetPoint" />
          </mxGeometry>
        </mxCell>
        <mxCell id="Pvh1fNdoSIO-kAcO-zxy-107" value="" style="endArrow=none;html=1;rounded=0;entryX=0;entryY=0.5;entryDx=0;entryDy=0;exitX=1;exitY=0.5;exitDx=0;exitDy=0;" edge="1" parent="1" source="Pvh1fNdoSIO-kAcO-zxy-9" target="Pvh1fNdoSIO-kAcO-zxy-15">
          <mxGeometry width="50" height="50" relative="1" as="geometry">
            <mxPoint x="611" y="180" as="sourcePoint" />
            <mxPoint x="700" y="105" as="targetPoint" />
          </mxGeometry>
        </mxCell>
        <mxCell id="Pvh1fNdoSIO-kAcO-zxy-108" value="" style="endArrow=none;html=1;rounded=0;entryX=0;entryY=0.5;entryDx=0;entryDy=0;exitX=1;exitY=0.5;exitDx=0;exitDy=0;" edge="1" parent="1" source="Pvh1fNdoSIO-kAcO-zxy-9" target="Pvh1fNdoSIO-kAcO-zxy-16">
          <mxGeometry width="50" height="50" relative="1" as="geometry">
            <mxPoint x="621" y="190" as="sourcePoint" />
            <mxPoint x="710" y="115" as="targetPoint" />
          </mxGeometry>
        </mxCell>
        <mxCell id="Pvh1fNdoSIO-kAcO-zxy-109" value="" style="endArrow=none;html=1;rounded=0;entryX=0;entryY=0.5;entryDx=0;entryDy=0;exitX=1;exitY=0.5;exitDx=0;exitDy=0;" edge="1" parent="1" source="Pvh1fNdoSIO-kAcO-zxy-9" target="Pvh1fNdoSIO-kAcO-zxy-17">
          <mxGeometry width="50" height="50" relative="1" as="geometry">
            <mxPoint x="631" y="200" as="sourcePoint" />
            <mxPoint x="720" y="125" as="targetPoint" />
          </mxGeometry>
        </mxCell>
        <mxCell id="Pvh1fNdoSIO-kAcO-zxy-110" value="" style="endArrow=none;html=1;rounded=0;entryX=0;entryY=0.5;entryDx=0;entryDy=0;exitX=1;exitY=0.5;exitDx=0;exitDy=0;" edge="1" parent="1" source="Pvh1fNdoSIO-kAcO-zxy-9" target="Pvh1fNdoSIO-kAcO-zxy-19">
          <mxGeometry width="50" height="50" relative="1" as="geometry">
            <mxPoint x="641" y="210" as="sourcePoint" />
            <mxPoint x="730" y="135" as="targetPoint" />
          </mxGeometry>
        </mxCell>
        <mxCell id="Pvh1fNdoSIO-kAcO-zxy-111" value="" style="endArrow=none;html=1;rounded=0;entryX=0.5;entryY=1;entryDx=0;entryDy=0;exitX=0.5;exitY=0;exitDx=0;exitDy=0;" edge="1" parent="1" source="Pvh1fNdoSIO-kAcO-zxy-112" target="Pvh1fNdoSIO-kAcO-zxy-20">
          <mxGeometry width="50" height="50" relative="1" as="geometry">
            <mxPoint x="230" y="580" as="sourcePoint" />
            <mxPoint x="280" y="530" as="targetPoint" />
          </mxGeometry>
        </mxCell>
        <mxCell id="Pvh1fNdoSIO-kAcO-zxy-112" value="" style="rhombus;whiteSpace=wrap;html=1;" vertex="1" parent="1">
          <mxGeometry x="133.5" y="430" width="80" height="80" as="geometry" />
        </mxCell>
        <mxCell id="Pvh1fNdoSIO-kAcO-zxy-113" value="" style="endArrow=none;html=1;rounded=0;entryX=0.5;entryY=1;entryDx=0;entryDy=0;exitX=0.5;exitY=0;exitDx=0;exitDy=0;" edge="1" parent="1" source="Pvh1fNdoSIO-kAcO-zxy-29" target="Pvh1fNdoSIO-kAcO-zxy-112">
          <mxGeometry width="50" height="50" relative="1" as="geometry">
            <mxPoint x="230" y="580" as="sourcePoint" />
            <mxPoint x="280" y="530" as="targetPoint" />
          </mxGeometry>
        </mxCell>
        <mxCell id="Pvh1fNdoSIO-kAcO-zxy-114" value="Familia de Medicamentos" style="rounded=0;whiteSpace=wrap;html=1;" vertex="1" parent="1">
          <mxGeometry x="297" y="160" width="120" height="60" as="geometry" />
        </mxCell>
        <mxCell id="Pvh1fNdoSIO-kAcO-zxy-115" value="Pertenece" style="rhombus;whiteSpace=wrap;html=1;" vertex="1" parent="1">
          <mxGeometry x="317" y="40" width="80" height="80" as="geometry" />
        </mxCell>
        <mxCell id="Pvh1fNdoSIO-kAcO-zxy-116" value="" style="endArrow=none;html=1;rounded=0;entryX=0.5;entryY=1;entryDx=0;entryDy=0;exitX=0.5;exitY=0;exitDx=0;exitDy=0;" edge="1" parent="1" source="Pvh1fNdoSIO-kAcO-zxy-114" target="Pvh1fNdoSIO-kAcO-zxy-115">
          <mxGeometry width="50" height="50" relative="1" as="geometry">
            <mxPoint x="380" y="380" as="sourcePoint" />
            <mxPoint x="430" y="330" as="targetPoint" />
          </mxGeometry>
        </mxCell>
        <mxCell id="Pvh1fNdoSIO-kAcO-zxy-117" value="" style="endArrow=none;html=1;rounded=0;entryX=0.5;entryY=1;entryDx=0;entryDy=0;exitX=0.5;exitY=0;exitDx=0;exitDy=0;" edge="1" parent="1" source="Pvh1fNdoSIO-kAcO-zxy-115" target="Pvh1fNdoSIO-kAcO-zxy-1">
          <mxGeometry width="50" height="50" relative="1" as="geometry">
            <mxPoint x="360" y="40" as="sourcePoint" />
            <mxPoint x="430" y="330" as="targetPoint" />
          </mxGeometry>
        </mxCell>
        <mxCell id="Pvh1fNdoSIO-kAcO-zxy-118" value="(1:N)" style="text;html=1;align=center;verticalAlign=middle;whiteSpace=wrap;rounded=0;" vertex="1" parent="1">
          <mxGeometry x="410" y="-30" width="60" height="30" as="geometry" />
        </mxCell>
        <mxCell id="Pvh1fNdoSIO-kAcO-zxy-119" value="(1:N)" style="text;html=1;align=center;verticalAlign=middle;whiteSpace=wrap;rounded=0;" vertex="1" parent="1">
          <mxGeometry x="220" y="340" width="60" height="30" as="geometry" />
        </mxCell>
        <mxCell id="Pvh1fNdoSIO-kAcO-zxy-121" value="Receta" style="ellipse;whiteSpace=wrap;html=1;" vertex="1" parent="1">
          <mxGeometry x="650" y="-30" width="79.25" height="50" as="geometry" />
        </mxCell>
        <mxCell id="Pvh1fNdoSIO-kAcO-zxy-120" value="Venta libre" style="ellipse;whiteSpace=wrap;html=1;" vertex="1" parent="1">
          <mxGeometry x="650" y="-80" width="79.25" height="50" as="geometry" />
        </mxCell>
        <mxCell id="Pvh1fNdoSIO-kAcO-zxy-122" value="&lt;div&gt;Compra&lt;/div&gt;" style="rounded=0;whiteSpace=wrap;html=1;" vertex="1" parent="1">
          <mxGeometry x="380.5" y="555" width="120" height="60" as="geometry" />
        </mxCell>
        <mxCell id="Pvh1fNdoSIO-kAcO-zxy-123" value="" style="ellipse;whiteSpace=wrap;html=1;" vertex="1" parent="1">
          <mxGeometry x="670" y="535" width="80" height="50" as="geometry" />
        </mxCell>
        <mxCell id="Pvh1fNdoSIO-kAcO-zxy-124" value="" style="ellipse;whiteSpace=wrap;html=1;" vertex="1" parent="1">
          <mxGeometry x="680" y="640" width="80" height="50" as="geometry" />
        </mxCell>
        <mxCell id="Pvh1fNdoSIO-kAcO-zxy-125" value="" style="ellipse;whiteSpace=wrap;html=1;" vertex="1" parent="1">
          <mxGeometry x="580" y="640" width="80" height="50" as="geometry" />
        </mxCell>
        <mxCell id="Pvh1fNdoSIO-kAcO-zxy-126" value="" style="ellipse;whiteSpace=wrap;html=1;" vertex="1" parent="1">
          <mxGeometry x="480.5" y="650" width="80" height="50" as="geometry" />
        </mxCell>
        <mxCell id="Pvh1fNdoSIO-kAcO-zxy-127" value="" style="ellipse;whiteSpace=wrap;html=1;" vertex="1" parent="1">
          <mxGeometry x="390" y="650" width="80" height="50" as="geometry" />
        </mxCell>
        <mxCell id="Pvh1fNdoSIO-kAcO-zxy-128" value="" style="ellipse;whiteSpace=wrap;html=1;" vertex="1" parent="1">
          <mxGeometry x="297" y="650" width="80" height="50" as="geometry" />
        </mxCell>
      </root>
    </mxGraphModel>
  </diagram>
</mxfile>
